<?xml version="1.0" standalone="no"?><!DOCTYPE svg PUBLIC "-//W3C//DTD SVG 1.1//EN" "http://www.w3.org/Graphics/SVG/1.1/DTD/svg11.dtd"><svg t="1581486656349" class="icon" viewBox="0 0 1024 1024" version="1.1" xmlns="http://www.w3.org/2000/svg" p-id="11419" width="128" height="128" xmlns:xlink="http://www.w3.org/1999/xlink"><defs><style type="text/css"></style></defs><path d="M511.900156 0.199961c282.744776 0 511.90002 229.155243 511.90002 511.900019s-229.155243 511.90002-511.90002 511.90002S0.000137 794.844757 0.000137 512.09998 229.25536 0.199961 511.900156 0.199961z" fill="#41B883" p-id="11420" data-spm-anchor-id="a313x.7781069.0.i4" class=""></path><path d="M465.209276 790.245655L224.756239 272.246827c-23.895333-50.990041-27.794571-62.787737 40.09217-62.787737H294.642589c24.895138 0 33.493458 10.397969 40.492092 26.594806L499.002675 568.888889c20.795938 42.491701 73.685608 61.28803 107.179067-4.999024l161.268502-328.435852c12.197618-27.894552 14.397188-27.194689 37.892599-27.194689 21.495802 0 1.799649 34.993165-12.197617 64.387425l-247.951572 517.998828c-16.096856 33.7934-64.187463 33.493458-79.984378-0.399922z" fill="#35495E" p-id="11421" data-spm-anchor-id="a313x.7781069.0.i1" class="selected"></path></svg>